<svg version="1.1" xmlns="http://www.w3.org/2000/svg">
    <symbol id="heart" viewBox="0 0 512 472.591">
        <path d="m 255.99879,472.591 -11.07635,-7.38423 C 192.27285,430.0455 125.65475,390.30601 76.315757,331.89672 24.31844,270.36144 -0.6279647,207.1647 0.01200229,138.67592 0.7873469,62.199868 62.113414,0 136.71879,0 c 59.20926,0 98.57953,34.459761 119.28,59.332324 C 276.69926,34.459761 316.06954,0 375.27879,0 c 74.60538,0 135.93145,62.199868 136.7068,138.639 0.68919,68.5257 -24.25722,131.68552 -76.30376,193.2208 -49.33899,58.44621 -115.95709,98.1857 -168.60668,133.34697 z"></path>
    </symbol>

    <symbol id="phone" viewBox="0 0 512 512">
        <path d="M347.1 24.6c7.7-18.6 28-28.5 47.4-23.2l88 24C499.9 30.2 512 46 512 64c0 247.4-200.6 448-448 448c-18 0-33.8-12.1-38.6-29.5l-24-88c-5.3-19.4 4.6-39.7 23.2-47.4l96-40c16.3-6.8 35.2-2.1 46.3 11.6L207.3 368c70.4-33.3 127.4-90.3 160.7-160.7L318.7 167c-13.7-11.2-18.4-30-11.6-46.3l40-96z"></path>
    </symbol>

    <symbol id="left-arrow" viewBox="0 0 256 512">
        <path d="M9.4 278.6c-12.5-12.5-12.5-32.8 0-45.3l128-128c9.2-9.2 22.9-11.9 34.9-6.9s19.8 16.6 19.8 29.6l0 256c0 12.9-7.8 24.6-19.8 29.6s-25.7 2.2-34.9-6.9l-128-128z"></path>
    </symbol>

    <symbol id="right-arrow" viewBox="0 0 256 512">
        <path d="M246.6 278.6c12.5-12.5 12.5-32.8 0-45.3l-128-128c-9.2-9.2-22.9-11.9-34.9-6.9s-19.8 16.6-19.8 29.6l0 256c0 12.9 7.8 24.6 19.8 29.6s25.7 2.2 34.9-6.9l128-128z"></path>
    </symbol>
</svg>
