<svg version="1.1" xmlns="http://www.w3.org/2000/svg">
    <symbol id="heart" viewBox="0 0 512 472.591">
        <path d="m 255.99879,472.591 -11.07635,-7.38423 C 192.27285,430.0455 125.65475,390.30601 76.315757,331.89672 24.31844,270.36144 -0.6279647,207.1647 0.01200229,138.67592 0.7873469,62.199868 62.113414,0 136.71879,0 c 59.20926,0 98.57953,34.459761 119.28,59.332324 C 276.69926,34.459761 316.06954,0 375.27879,0 c 74.60538,0 135.93145,62.199868 136.7068,138.639 0.68919,68.5257 -24.25722,131.68552 -76.30376,193.2208 -49.33899,58.44621 -115.95709,98.1857 -168.60668,133.34697 z"></path>
    </symbol>

    <symbol id="phone" viewBox="0 0 512 512">
        <path d="M347.1 24.6c7.7-18.6 28-28.5 47.4-23.2l88 24C499.9 30.2 512 46 512 64c0 247.4-200.6 448-448 448c-18 0-33.8-12.1-38.6-29.5l-24-88c-5.3-19.4 4.6-39.7 23.2-47.4l96-40c16.3-6.8 35.2-2.1 46.3 11.6L207.3 368c70.4-33.3 127.4-90.3 160.7-160.7L318.7 167c-13.7-11.2-18.4-30-11.6-46.3l40-96z"></path>
    </symbol>

    <symbol id="left-arrow" viewBox="0 0 256 512">
        <path d="M9.4 278.6c-12.5-12.5-12.5-32.8 0-45.3l128-128c9.2-9.2 22.9-11.9 34.9-6.9s19.8 16.6 19.8 29.6l0 256c0 12.9-7.8 24.6-19.8 29.6s-25.7 2.2-34.9-6.9l-128-128z"></path>
    </symbol>

    <symbol id="right-arrow" viewBox="0 0 256 512">
        <path d="M246.6 278.6c12.5-12.5 12.5-32.8 0-45.3l-128-128c-9.2-9.2-22.9-11.9-34.9-6.9s-19.8 16.6-19.8 29.6l0 256c0 12.9 7.8 24.6 19.8 29.6s25.7 2.2 34.9-6.9l128-128z"></path>
    </symbol>

    <symbol id="mail" viewBox="0 0 24 19.2">
        <path d="M 1.2,3.6 A 2.4,2.4 0 0 1 3.6,1.2 h 16.8 a 2.4,2.4 0 0 1 2.4,2.4 v 12 A 2.4,2.4 0 0 1 20.4,18 H 3.6 A 2.4,2.4 0 0 1 1.2,15.6 Z"></path>
        <path d="M 1.2,3.6 12,10.8 22.8,3.6"></path>
    </symbol>

    <symbol id="code" viewBox="0 0 512 292.57145">
        <path d="M 181.02857,258.4 68.457143,146.28571 180.91429,34.171429 146.62857,0 0,146.28571 146.74286,292.57143 Z m 149.94286,0 L 443.42857,146.28571 330.97143,34.171429 365.25714,0 512,146.28571 365.25714,292.57143 Z"></path>
    </symbol>

    <symbol id="thumbs-up" viewBox="0 0 1024 1054.8489">
        <path d="m 990.592,555.26495 c 21.504,-28.416 33.408,-63.232 33.408,-99.456 0,-57.472 -32.128,-111.872 -83.84,-142.208 a 86.6176,86.6176 0 0 0 -43.904,-11.904 H 589.312 l 7.68,-157.312 C 598.784,106.36894 585.344,70.272945 559.232,42.752945 A 136.4736,136.4736 0 0 0 459.52,9.4456194e-4 C 392.96,9.4456194e-4 334.08,44.800945 316.416,108.92894 L 206.464,507.00895 H 40.96 c -22.656,0 -40.96,18.304 -40.96,40.96 v 465.91995 c 0,22.656 18.304,40.96 40.96,40.96 h 769.664 c 11.776,0 23.296,-2.304 33.92,-6.912 60.928,-25.984 100.224,-85.50395 100.224,-151.55195 0,-16.128 -2.304,-32 -6.912,-47.36 21.504,-28.416 33.408,-63.232 33.408,-99.456 0,-16.128 -2.304,-32 -6.912,-47.36 21.504,-28.416 33.408,-63.232 33.408,-99.456 -0.256,-16.128 -2.56,-32.128 -7.168,-47.488 z M 92.16,962.68895 v -363.52 h 103.68 v 363.52 z m 814.592,-451.84 -28.032,24.32 17.792,32.512 a 71.936,71.936 0 0 1 8.832,34.944 c 0,21.12 -9.216,41.216 -25.088,55.04 l -28.032,24.32 17.792,32.512 a 71.936,71.936 0 0 1 8.832,34.944 c 0,21.12 -9.216,41.216 -25.088,55.04 l -28.032,24.32 17.792,32.512 a 71.936,71.936 0 0 1 8.832,34.944 c 0,28.672 -16.896,54.528 -43.008,66.304 H 277.76 v -367.488 l 127.36,-461.44 a 56.448,56.448 0 0 1 54.016,-41.344005 c 9.728,0 19.328,2.816 27.008,8.575995 12.672,9.472 19.456,23.808 18.688,39.04001 l -12.288,253.952 h 402.432 c 22.784,13.952 36.864,37.504 36.864,61.952 0,21.12 -9.216,41.088 -25.088,55.04 z"></path>
    </symbol>

    <symbol id="document" viewBox="0 0 512 651.63641">
        <path
           fill="none"
           stroke-linejoin="round"
           stroke-width="46.5455"
           d="m 488.72729,275.27275 v 283.27272 a 69.818182,69.818182 0 0 1 -69.81818,69.81819 H 93.090933 A 69.818182,69.818182 0 0 1 23.272751,558.54547 V 93.090933 A 69.818182,69.818182 0 0 1 93.090933,23.272751 H 236.72729 a 46.545455,46.545455 0 0 1 32.90182,13.629091 L 475.0982,242.37093 a 46.545455,46.545455 0 0 1 13.62909,32.90182 z">
       </path>

        <path
           fill="none"
           stroke-linecap="round"
           stroke-linejoin="round"
           stroke-width="46.5455"
           d="M 256.00002,34.909115 V 209.45457 a 46.545455,46.545455 0 0 0 46.54545,46.54545 h 174.54546">
       </path>
    </symbol>

    <symbol id="privacy" viewBox="0 0 24 29.33328">
        <path
            stroke-width="0"
            d="m 12,2.92 9.333333,4.1466667 V 13.333333 C 21.333333,19.36 17.36,24.92 12,26.573333 6.64,24.92 2.6666667,19.36 2.6666667,13.333333 V 7.0666667 L 12,2.92 M 12,0 0,5.3333333 v 7.9999997 c 0,7.4 5.12,14.32 12,16 6.88,-1.68 12,-8.6 12,-16 V 5.3333333 Z m -1.333333,8 h 2.666666 v 2.666667 h -2.666666 z m 0,5.333333 h 2.666666 v 8 h -2.666666 z">
        </path>
    </symbol>

    <symbol id="at" viewBox="0 0 512 509.11488">
        <path
            fill="none"
            stroke-linecap="round"
            stroke-linejoin="round"
            stroke-width="42.4262"
            d="m 340.29766,254.55746 c -5.9662,67.61683 -53.19191,106.06562 -106.79481,106.06562 -53.60291,0 -89.28073,-47.49088 -84.12329,-106.06562 5.15743,-58.57473 49.21444,-106.0656 102.81735,-106.0656 53.6029,0 93.24492,47.72952 88.10075,106.0656 z">
       </path>

        <path
            fill="none"
            stroke-linecap="round"
            stroke-linejoin="round"
            stroke-width="42.4262"
            d="M 339.99272,468.67742 C 302.12729,484.58726 277.30795,487.90181 234.8817,487.90181 106.01198,487.90181 10.818095,383.42718 22.100825,254.55746 33.383554,125.68775 147.13892,21.213122 276.00864,21.213122 c 145.16405,0 224.96516,95.101078 213.74872,222.379808 -8.36593,95.02153 -69.08848,122.39971 -100.88165,116.76498 -29.91051,-5.30328 -54.59728,-32.37652 -50.03646,-84.18958 l 11.24296,-127.61018">
       </path>
    </symbol>

    <symbol id="instagram" viewBox="0 0 512 512">
        <path
            stroke-width="0"
            d="M 362.66286,42.662857 A 106.99429,106.99429 0 0 1 469.33714,149.33714 V 362.66286 A 106.99429,106.99429 0 0 1 362.66286,469.33714 H 149.33714 A 106.99429,106.99429 0 0 1 42.662857,362.66286 V 149.33714 A 106.99429,106.99429 0 0 1 149.33714,42.662857 H 362.66286 M 362.66286,0 H 149.33714 C 67.2,0 0,67.2 0,149.33714 V 362.66286 C 0,444.8 67.2,512 149.33714,512 H 362.66286 C 444.8,512 512,444.8 512,362.66286 V 149.33714 C 512,67.2 444.8,0 362.66286,0 Z">
        </path>

        <path
            stroke-width="0"
            d="m 394.66286,149.33714 a 32,32 0 1 1 32,-32 31.931429,31.931429 0 0 1 -32,32 z M 256,170.66286 A 85.337143,85.337143 0 1 1 170.66286,256 85.428571,85.428571 0 0 1 256,170.66286 M 256,128 A 128,128 0 1 0 384,256 128,128 0 0 0 256,128 Z">
        </path>
    </symbol>

    <symbol id="facebook" viewBox="0 0 32 32">
        <path
            stroke-width="0"
            d="M 2.9090909,0 C 1.3181818,0 0,1.3181818 0,2.9090909 V 29.090909 C 0,30.681818 1.3181818,32 2.9090909,32 H 29.090909 C 30.681818,32 32,30.681818 32,29.090909 V 2.9090909 C 32,1.3181818 30.681818,0 29.090909,0 Z m 0,2.9090909 H 29.090909 V 29.090909 h -7.545454 v -9.818182 h 3.772727 l 0.545454,-4.363636 h -4.318181 v -2.818182 c 0,-1.272727 0.3125,-2.1363635 2.136363,-2.1363635 h 2.363637 V 6 C 25.642045,5.948864 24.244319,5.8636364 22.636364,5.8636364 19.284092,5.8636364 17,7.8806822 17,11.636364 v 3.272727 h -3.818182 v 4.363636 H 17 v 9.818182 H 2.9090909 Z">
        </path>
    </symbol>

    <symbol id="issues" viewBox="0 0 16 16">
        <path
            stroke-width="0"
            d="M 8.0000242,0 C 6.4177842,0 4.8710642,0.46920615 3.5554704,1.3482585 2.2398766,2.2273108 1.2144489,3.4767385 0.60895967,4.9385477 0.00345813,6.4003569 -0.15495664,8.0088492 0.15372274,9.5607015 0.46241198,11.112492 1.2243566,12.538092 2.343175,13.656862 c 1.1188185,1.118769 2.5443077,1.880738 4.09616,2.189415 1.55184,0.308677 3.1603323,0.150277 4.622142,-0.455262 1.461846,-0.605415 2.7112,-1.630892 3.590338,-2.946461 C 15.530831,11.128985 16,9.5822523 16,8 16,5.8782646 15.157169,3.8434462 13.656862,2.3431508 12.156553,0.84285538 10.12176,0 8.0000242,0 Z m 0,14.769231 c -1.3388184,0 -2.6476184,-0.396923 -3.7608123,-1.1408 C 3.1260181,12.884677 2.2584735,11.827323 1.7461289,10.590449 1.2337719,9.3535262 1.0997166,7.9924923 1.3609104,6.6793846 1.6221042,5.3662892 2.2668304,4.1601846 3.2135258,3.2134892 4.1602212,2.2667938 5.3663135,1.6220677 6.6794212,1.3608738 7.9925166,1.09968 9.3535627,1.2337477 10.590473,1.7460923 c 1.236973,0.5123446 2.294204,1.3799015 3.037958,2.4930954 0.743877,1.1131938 1.1408,2.4219815 1.1408,3.7608123 0,1.7953108 -0.713231,3.517046 -1.982646,4.786462 -1.269539,1.269538 -2.99125,1.982769 -4.7865608,1.982769 z">
        </path>

        <circle
            stroke-width="0"
            cx="8.0000238"
            cy="8"
            r="1.2307693">
        </circle>
    </symbol>

    <symbol id="graduation-cap" viewBox="0 0 24 19.63632">
        <path
            fill="none"
            stroke-width="0"
            d="M 0,0 H 24 V 19.63632 H 0 Z">
        </path>
        <path
            stroke-width="0"
            d="M 12,0 0,6.5454545 4.3636364,8.9236364 V 15.469091 L 12,19.636364 19.636364,15.469091 V 8.9236364 L 21.818182,7.7345455 V 15.272727 H 24 V 6.5454545 Z M 19.44,6.5454545 12,10.603636 4.56,6.5454545 12,2.4872727 Z M 17.454545,14.170909 12,17.149091 6.5454545,14.170909 V 10.112727 L 12,13.090909 17.454545,10.112727 Z">
        </path>
    </symbol>

    <symbol id="handshake" viewBox="0 0 640.00117 409.56539">
        <path d="m 488.02281,140.78285 h -152 v 56 c 0,39.7 -32.3,72 -72,72 -39.7,0 -72,-32.3 -72,-72 v -121.6 l -64.9,39 c -19.3,11.5 -31.100002,32.4 -31.100002,54.8 v 47.3 l -80,46.2 c -15.30000009,8.8 -20.6000001,28.4 -11.7000001,43.7 l 80.0000001,138.6 c 8.8,15.3 28.400002,20.5 43.700002,11.7 l 103.4,-59.7 h 136.6 c 35.3,0 64,-28.7 64,-64 h 16 c 17.7,0 32,-14.3 32,-32 v -64 h 8 c 13.3,0 24,-10.7 24,-24 v -48 c 0,-13.3 -10.7,-24 -24,-24 z m 147.7,-37.4 -80,-138.6 c -8.8,-15.3 -28.4,-20.5 -43.7,-11.7 l -103.4,59.7 h -102.2 c -12,0 -23.7,3.4 -33.9,9.7 l -33.5,20.9 c -9.4,5.8 -15,16.1 -15,27.1 v 126.3 c 0,22.1 17.9,40 40,40 22.1,0 40,-17.9 40,-40 v -88 h 184 c 30.9,0 56,25.1 56,56 v 28.5 l 80,-46.2 c 15.3,-8.9 20.5,-28.4 11.7,-43.7 z"> </path>
    </symbol>

    <symbol id="network" viewBox="0 0 24 25.263158">
        <path
            stroke-width="0"
            d="m 20.210526,1.2631579 c -2.089263,0 -3.789473,1.7002105 -3.789473,3.7894737 0,0.6341052 0.171789,1.2227368 0.447158,1.7494737 L 15.458526,8.4467368 A 5.0223158,5.0223158 0 0 0 12.631579,7.5789474 c -0.933474,0 -1.8,0.2728421 -2.551579,0.7149473 L 8.2938947,6.5077895 A 4.3566316,4.3566316 0 0 0 8.8421053,4.4210526 C 8.8421053,1.9831579 6.8589474,0 4.4210526,0 1.9831579,0 0,1.9831579 0,4.4210526 c 0,2.4378948 1.9831579,4.4210527 4.4210526,4.4210527 0.7591579,0 1.4627369,-0.2096842 2.0867369,-0.5482106 L 8.2938947,10.08 a 5.0172632,5.0172632 0 0 0 -0.7149473,2.551579 c 0,1.259368 0.48,2.398737 1.2442105,3.285474 l -2.1372632,2.137263 0.031579,0.03158 A 3.7414737,3.7414737 0 0 0 5.0526316,17.684211 c -2.0892632,0 -3.7894737,1.70021 -3.7894737,3.789473 0,2.089263 1.7002105,3.789474 3.7894737,3.789474 2.0892631,0 3.7894737,-1.700211 3.7894737,-3.789474 0,-0.601263 -0.1528421,-1.160842 -0.4016842,-1.664842 l 0.031579,0.03158 2.4682109,-2.46821 c 0.531789,0.189473 1.095157,0.312 1.691368,0.312 2.786526,0 5.052632,-2.266106 5.052632,-5.052632 a 5.0021053,5.0021053 0 0 0 -0.554527,-2.254737 l 1.582737,-1.8467367 c 0.45979,0.1995789 0.965053,0.312 1.498105,0.312 C 22.299789,8.8421053 24,7.1418947 24,5.0526316 24,2.9633684 22.299789,1.2631579 20.210526,1.2631579 Z M 5.0526316,22.736842 a 1.263158,1.263158 0 1 1 0,-2.526316 1.263158,1.263158 0 0 1 0,2.526316 z M 2.5263158,4.4210526 c 0,-1.0446315 0.8501053,-1.8947368 1.8947368,-1.8947368 1.0446316,0 1.8947369,0.8501053 1.8947369,1.8947368 0,1.0446316 -0.8501053,1.8947369 -1.8947369,1.8947369 -1.0446315,0 -1.8947368,-0.8501053 -1.8947368,-1.8947369 z M 12.631579,15.157895 c -1.393263,0 -2.526316,-1.133053 -2.526316,-2.526316 0,-1.393263 1.133053,-2.526316 2.526316,-2.526316 1.393263,0 2.526316,1.133053 2.526316,2.526316 0,1.393263 -1.133053,2.526316 -2.526316,2.526316 z m 7.578947,-8.8421055 a 1.2631579,1.2631579 0 1 1 0,-2.5263158 1.2631579,1.2631579 0 0 1 0,2.5263158 z">
        </path>
    </symbol>

    <symbol id="globe" viewBox="0 0 24 24">
        <path
            fill-rule="evenodd"
            clip-rule="evenodd"
            stroke-width="0"
            d="M 12,0 C 5.3723077,0 0,5.3723077 0,12 0,18.627692 5.3723077,24 12,24 18.627692,24 24,18.627692 24,12 24,5.3723077 18.627692,0 12,0 Z M 7.7501538,2.7753846 A 10.153846,10.153846 0 1 0 22.115692,12.884923 L 21.549538,12.318769 A 2.7716923,2.7716923 0 0 1 21.030154,11.597538 L 19.700923,8.9390769 a 0.50953846,0.50953846 0 0 0 -0.816,-0.1316923 1.0178462,1.0178462 0 0 1 -0.999385,0.2584616 L 16.318769,8.6190769 a 1.0953846,1.0953846 0 0 0 -0.908307,1.9630771 l 0.722461,0.48 c 0.726154,0.486154 0.829539,1.513846 0.211692,2.131692 L 16.098462,13.44 c -0.259693,0.260923 -0.406154,0.612923 -0.406154,0.979692 v 0.504616 c 0,0.503384 -0.135385,0.995692 -0.393846,1.42523 L 13.68,19.046154 a 2.5969231,2.5969231 0 0 1 -2.227692,1.261538 1.2984615,1.2984615 0 0 1 -1.298462,-1.298461 v -1.442462 c 0,-1.132307 -0.6892306,-2.150154 -1.7403075,-2.571077 L 7.6086154,14.674462 A 2.7692308,2.7692308 0 0 1 5.9052308,11.646769 l 0.00862,-0.05169 a 2.7692308,2.7692308 0 0 1 0.356923,-0.968615 L 6.3815385,10.441846 A 2.7692308,2.7692308 0 0 1 9.2984615,9.152 L 10.748308,9.4424615 A 1.3846154,1.3846154 0 0 0 12.350769,8.464 l 0.256,-0.8984615 A 1.3846154,1.3846154 0 0 0 11.895385,5.9470769 l -0.818462,-0.4086154 -0.112,0.112 A 2.7692308,2.7692308 0 0 1 9.0067692,6.4615385 H 8.7852308 c -0.3064616,0 -0.5993846,0.1230769 -0.8147693,0.3372307 A 1.1458462,1.1458462 0 0 1 6.176,5.3993846 Z">
        </path>
    </symbol>
</svg>
