<svg version="1.1" xmlns="http://www.w3.org/2000/svg">
    <symbol id="heart" viewBox="0 0 512 472.591">
        <path d="m 255.99879,472.591 -11.07635,-7.38423 C 192.27285,430.0455 125.65475,390.30601 76.315757,331.89672 24.31844,270.36144 -0.6279647,207.1647 0.01200229,138.67592 0.7873469,62.199868 62.113414,0 136.71879,0 c 59.20926,0 98.57953,34.459761 119.28,59.332324 C 276.69926,34.459761 316.06954,0 375.27879,0 c 74.60538,0 135.93145,62.199868 136.7068,138.639 0.68919,68.5257 -24.25722,131.68552 -76.30376,193.2208 -49.33899,58.44621 -115.95709,98.1857 -168.60668,133.34697 z"></path>
    </symbol>

    <symbol id="phone" viewBox="0 0 512 512">
        <path d="M347.1 24.6c7.7-18.6 28-28.5 47.4-23.2l88 24C499.9 30.2 512 46 512 64c0 247.4-200.6 448-448 448c-18 0-33.8-12.1-38.6-29.5l-24-88c-5.3-19.4 4.6-39.7 23.2-47.4l96-40c16.3-6.8 35.2-2.1 46.3 11.6L207.3 368c70.4-33.3 127.4-90.3 160.7-160.7L318.7 167c-13.7-11.2-18.4-30-11.6-46.3l40-96z"></path>
    </symbol>

    <symbol id="left-arrow" viewBox="0 0 256 512">
        <path d="M9.4 278.6c-12.5-12.5-12.5-32.8 0-45.3l128-128c9.2-9.2 22.9-11.9 34.9-6.9s19.8 16.6 19.8 29.6l0 256c0 12.9-7.8 24.6-19.8 29.6s-25.7 2.2-34.9-6.9l-128-128z"></path>
    </symbol>

    <symbol id="right-arrow" viewBox="0 0 256 512">
        <path d="M246.6 278.6c12.5-12.5 12.5-32.8 0-45.3l-128-128c-9.2-9.2-22.9-11.9-34.9-6.9s-19.8 16.6-19.8 29.6l0 256c0 12.9 7.8 24.6 19.8 29.6s25.7 2.2 34.9-6.9l128-128z"></path>
    </symbol>

    <symbol id="mail" viewBox="0 0 24 19.2">
        <path d="M 1.2,3.6 A 2.4,2.4 0 0 1 3.6,1.2 h 16.8 a 2.4,2.4 0 0 1 2.4,2.4 v 12 A 2.4,2.4 0 0 1 20.4,18 H 3.6 A 2.4,2.4 0 0 1 1.2,15.6 Z"></path>
        <path d="M 1.2,3.6 12,10.8 22.8,3.6"></path>
    </symbol>

    <symbol id="code" viewBox="0 0 512 292.57145">
        <path d="M 181.02857,258.4 68.457143,146.28571 180.91429,34.171429 146.62857,0 0,146.28571 146.74286,292.57143 Z m 149.94286,0 L 443.42857,146.28571 330.97143,34.171429 365.25714,0 512,146.28571 365.25714,292.57143 Z"></path>
    </symbol>

    <symbol id="thumbs-up" viewBox="0 0 1024 1054.8489">
        <path d="m 990.592,555.26495 c 21.504,-28.416 33.408,-63.232 33.408,-99.456 0,-57.472 -32.128,-111.872 -83.84,-142.208 a 86.6176,86.6176 0 0 0 -43.904,-11.904 H 589.312 l 7.68,-157.312 C 598.784,106.36894 585.344,70.272945 559.232,42.752945 A 136.4736,136.4736 0 0 0 459.52,9.4456194e-4 C 392.96,9.4456194e-4 334.08,44.800945 316.416,108.92894 L 206.464,507.00895 H 40.96 c -22.656,0 -40.96,18.304 -40.96,40.96 v 465.91995 c 0,22.656 18.304,40.96 40.96,40.96 h 769.664 c 11.776,0 23.296,-2.304 33.92,-6.912 60.928,-25.984 100.224,-85.50395 100.224,-151.55195 0,-16.128 -2.304,-32 -6.912,-47.36 21.504,-28.416 33.408,-63.232 33.408,-99.456 0,-16.128 -2.304,-32 -6.912,-47.36 21.504,-28.416 33.408,-63.232 33.408,-99.456 -0.256,-16.128 -2.56,-32.128 -7.168,-47.488 z M 92.16,962.68895 v -363.52 h 103.68 v 363.52 z m 814.592,-451.84 -28.032,24.32 17.792,32.512 a 71.936,71.936 0 0 1 8.832,34.944 c 0,21.12 -9.216,41.216 -25.088,55.04 l -28.032,24.32 17.792,32.512 a 71.936,71.936 0 0 1 8.832,34.944 c 0,21.12 -9.216,41.216 -25.088,55.04 l -28.032,24.32 17.792,32.512 a 71.936,71.936 0 0 1 8.832,34.944 c 0,28.672 -16.896,54.528 -43.008,66.304 H 277.76 v -367.488 l 127.36,-461.44 a 56.448,56.448 0 0 1 54.016,-41.344005 c 9.728,0 19.328,2.816 27.008,8.575995 12.672,9.472 19.456,23.808 18.688,39.04001 l -12.288,253.952 h 402.432 c 22.784,13.952 36.864,37.504 36.864,61.952 0,21.12 -9.216,41.088 -25.088,55.04 z"></path>
    </symbol>
</svg>
