<svg version="1.1" xmlns="http://www.w3.org/2000/svg">
    <symbol id="heart" viewBox="0 0 512 472.591">
        <path d="m 255.99879,472.591 -11.07635,-7.38423 C 192.27285,430.0455 125.65475,390.30601 76.315757,331.89672 24.31844,270.36144 -0.6279647,207.1647 0.01200229,138.67592 0.7873469,62.199868 62.113414,0 136.71879,0 c 59.20926,0 98.57953,34.459761 119.28,59.332324 C 276.69926,34.459761 316.06954,0 375.27879,0 c 74.60538,0 135.93145,62.199868 136.7068,138.639 0.68919,68.5257 -24.25722,131.68552 -76.30376,193.2208 -49.33899,58.44621 -115.95709,98.1857 -168.60668,133.34697 z"></path>
    </symbol>

    <symbol id="phone" viewBox="0 0 512 512">
        <path d="M347.1 24.6c7.7-18.6 28-28.5 47.4-23.2l88 24C499.9 30.2 512 46 512 64c0 247.4-200.6 448-448 448c-18 0-33.8-12.1-38.6-29.5l-24-88c-5.3-19.4 4.6-39.7 23.2-47.4l96-40c16.3-6.8 35.2-2.1 46.3 11.6L207.3 368c70.4-33.3 127.4-90.3 160.7-160.7L318.7 167c-13.7-11.2-18.4-30-11.6-46.3l40-96z"></path>
    </symbol>

    <symbol id="left-arrow" viewBox="0 0 256 512">
        <path d="M9.4 278.6c-12.5-12.5-12.5-32.8 0-45.3l128-128c9.2-9.2 22.9-11.9 34.9-6.9s19.8 16.6 19.8 29.6l0 256c0 12.9-7.8 24.6-19.8 29.6s-25.7 2.2-34.9-6.9l-128-128z"></path>
    </symbol>

    <symbol id="right-arrow" viewBox="0 0 256 512">
        <path d="M246.6 278.6c12.5-12.5 12.5-32.8 0-45.3l-128-128c-9.2-9.2-22.9-11.9-34.9-6.9s-19.8 16.6-19.8 29.6l0 256c0 12.9 7.8 24.6 19.8 29.6s25.7 2.2 34.9-6.9l128-128z"></path>
    </symbol>

    <symbol id="mail" viewBox="0 0 24 19.2">
        <path d="M 1.2,3.6 A 2.4,2.4 0 0 1 3.6,1.2 h 16.8 a 2.4,2.4 0 0 1 2.4,2.4 v 12 A 2.4,2.4 0 0 1 20.4,18 H 3.6 A 2.4,2.4 0 0 1 1.2,15.6 Z"></path>
        <path d="M 1.2,3.6 12,10.8 22.8,3.6"></path>
    </symbol>

    <symbol id="code" viewBox="0 0 512 292.57145">
        <path d="M 181.02857,258.4 68.457143,146.28571 180.91429,34.171429 146.62857,0 0,146.28571 146.74286,292.57143 Z m 149.94286,0 L 443.42857,146.28571 330.97143,34.171429 365.25714,0 512,146.28571 365.25714,292.57143 Z"></path>
    </symbol>

    <symbol id="thumbs-up" viewBox="0 0 1024 1054.8489">
        <path d="m 990.592,555.26495 c 21.504,-28.416 33.408,-63.232 33.408,-99.456 0,-57.472 -32.128,-111.872 -83.84,-142.208 a 86.6176,86.6176 0 0 0 -43.904,-11.904 H 589.312 l 7.68,-157.312 C 598.784,106.36894 585.344,70.272945 559.232,42.752945 A 136.4736,136.4736 0 0 0 459.52,9.4456194e-4 C 392.96,9.4456194e-4 334.08,44.800945 316.416,108.92894 L 206.464,507.00895 H 40.96 c -22.656,0 -40.96,18.304 -40.96,40.96 v 465.91995 c 0,22.656 18.304,40.96 40.96,40.96 h 769.664 c 11.776,0 23.296,-2.304 33.92,-6.912 60.928,-25.984 100.224,-85.50395 100.224,-151.55195 0,-16.128 -2.304,-32 -6.912,-47.36 21.504,-28.416 33.408,-63.232 33.408,-99.456 0,-16.128 -2.304,-32 -6.912,-47.36 21.504,-28.416 33.408,-63.232 33.408,-99.456 -0.256,-16.128 -2.56,-32.128 -7.168,-47.488 z M 92.16,962.68895 v -363.52 h 103.68 v 363.52 z m 814.592,-451.84 -28.032,24.32 17.792,32.512 a 71.936,71.936 0 0 1 8.832,34.944 c 0,21.12 -9.216,41.216 -25.088,55.04 l -28.032,24.32 17.792,32.512 a 71.936,71.936 0 0 1 8.832,34.944 c 0,21.12 -9.216,41.216 -25.088,55.04 l -28.032,24.32 17.792,32.512 a 71.936,71.936 0 0 1 8.832,34.944 c 0,28.672 -16.896,54.528 -43.008,66.304 H 277.76 v -367.488 l 127.36,-461.44 a 56.448,56.448 0 0 1 54.016,-41.344005 c 9.728,0 19.328,2.816 27.008,8.575995 12.672,9.472 19.456,23.808 18.688,39.04001 l -12.288,253.952 h 402.432 c 22.784,13.952 36.864,37.504 36.864,61.952 0,21.12 -9.216,41.088 -25.088,55.04 z"></path>
    </symbol>

    <symbol id="document" viewBox="0 0 512 651.63641">
        <path
           fill="none"
           stroke-linejoin="round"
           stroke-width="46.5455"
           d="m 488.72729,275.27275 v 283.27272 a 69.818182,69.818182 0 0 1 -69.81818,69.81819 H 93.090933 A 69.818182,69.818182 0 0 1 23.272751,558.54547 V 93.090933 A 69.818182,69.818182 0 0 1 93.090933,23.272751 H 236.72729 a 46.545455,46.545455 0 0 1 32.90182,13.629091 L 475.0982,242.37093 a 46.545455,46.545455 0 0 1 13.62909,32.90182 z">
       </path>

        <path
           fill="none"
           stroke-linecap="round"
           stroke-linejoin="round"
           stroke-width="46.5455"
           d="M 256.00002,34.909115 V 209.45457 a 46.545455,46.545455 0 0 0 46.54545,46.54545 h 174.54546">
       </path>
    </symbol>

    <symbol id="privacy" viewBox="0 0 24 29.33328">
        <path
            stroke-width="0"
            d="m 12,2.92 9.333333,4.1466667 V 13.333333 C 21.333333,19.36 17.36,24.92 12,26.573333 6.64,24.92 2.6666667,19.36 2.6666667,13.333333 V 7.0666667 L 12,2.92 M 12,0 0,5.3333333 v 7.9999997 c 0,7.4 5.12,14.32 12,16 6.88,-1.68 12,-8.6 12,-16 V 5.3333333 Z m -1.333333,8 h 2.666666 v 2.666667 h -2.666666 z m 0,5.333333 h 2.666666 v 8 h -2.666666 z">
        </path>
    </symbol>

    <symbol id="at" viewBox="0 0 512 509.11488">
        <path
            fill="none"
            stroke-linecap="round"
            stroke-linejoin="round"
            stroke-width="42.4262"
            d="m 340.29766,254.55746 c -5.9662,67.61683 -53.19191,106.06562 -106.79481,106.06562 -53.60291,0 -89.28073,-47.49088 -84.12329,-106.06562 5.15743,-58.57473 49.21444,-106.0656 102.81735,-106.0656 53.6029,0 93.24492,47.72952 88.10075,106.0656 z">
       </path>

        <path
            fill="none"
            stroke-linecap="round"
            stroke-linejoin="round"
            stroke-width="42.4262"
            d="M 339.99272,468.67742 C 302.12729,484.58726 277.30795,487.90181 234.8817,487.90181 106.01198,487.90181 10.818095,383.42718 22.100825,254.55746 33.383554,125.68775 147.13892,21.213122 276.00864,21.213122 c 145.16405,0 224.96516,95.101078 213.74872,222.379808 -8.36593,95.02153 -69.08848,122.39971 -100.88165,116.76498 -29.91051,-5.30328 -54.59728,-32.37652 -50.03646,-84.18958 l 11.24296,-127.61018">
       </path>
    </symbol>

    <symbol id="instagram" viewBox="0 0 512 512">
        <path
            stroke-width="0"
            d="M 362.66286,42.662857 A 106.99429,106.99429 0 0 1 469.33714,149.33714 V 362.66286 A 106.99429,106.99429 0 0 1 362.66286,469.33714 H 149.33714 A 106.99429,106.99429 0 0 1 42.662857,362.66286 V 149.33714 A 106.99429,106.99429 0 0 1 149.33714,42.662857 H 362.66286 M 362.66286,0 H 149.33714 C 67.2,0 0,67.2 0,149.33714 V 362.66286 C 0,444.8 67.2,512 149.33714,512 H 362.66286 C 444.8,512 512,444.8 512,362.66286 V 149.33714 C 512,67.2 444.8,0 362.66286,0 Z">
        </path>

        <path
            stroke-width="0"
            d="m 394.66286,149.33714 a 32,32 0 1 1 32,-32 31.931429,31.931429 0 0 1 -32,32 z M 256,170.66286 A 85.337143,85.337143 0 1 1 170.66286,256 85.428571,85.428571 0 0 1 256,170.66286 M 256,128 A 128,128 0 1 0 384,256 128,128 0 0 0 256,128 Z">
        </path>
    </symbol>

    <symbol id="facebook" viewBox="0 0 32 32">
        <path
            stroke-width="0"
            d="M 2.9090909,0 C 1.3181818,0 0,1.3181818 0,2.9090909 V 29.090909 C 0,30.681818 1.3181818,32 2.9090909,32 H 29.090909 C 30.681818,32 32,30.681818 32,29.090909 V 2.9090909 C 32,1.3181818 30.681818,0 29.090909,0 Z m 0,2.9090909 H 29.090909 V 29.090909 h -7.545454 v -9.818182 h 3.772727 l 0.545454,-4.363636 h -4.318181 v -2.818182 c 0,-1.272727 0.3125,-2.1363635 2.136363,-2.1363635 h 2.363637 V 6 C 25.642045,5.948864 24.244319,5.8636364 22.636364,5.8636364 19.284092,5.8636364 17,7.8806822 17,11.636364 v 3.272727 h -3.818182 v 4.363636 H 17 v 9.818182 H 2.9090909 Z">
        </path>
    </symbol>

    <symbol id="issues" viewBox="0 0 16 16">
        <path
            stroke-width="0"
            d="M 8.0000242,0 C 6.4177842,0 4.8710642,0.46920615 3.5554704,1.3482585 2.2398766,2.2273108 1.2144489,3.4767385 0.60895967,4.9385477 0.00345813,6.4003569 -0.15495664,8.0088492 0.15372274,9.5607015 0.46241198,11.112492 1.2243566,12.538092 2.343175,13.656862 c 1.1188185,1.118769 2.5443077,1.880738 4.09616,2.189415 1.55184,0.308677 3.1603323,0.150277 4.622142,-0.455262 1.461846,-0.605415 2.7112,-1.630892 3.590338,-2.946461 C 15.530831,11.128985 16,9.5822523 16,8 16,5.8782646 15.157169,3.8434462 13.656862,2.3431508 12.156553,0.84285538 10.12176,0 8.0000242,0 Z m 0,14.769231 c -1.3388184,0 -2.6476184,-0.396923 -3.7608123,-1.1408 C 3.1260181,12.884677 2.2584735,11.827323 1.7461289,10.590449 1.2337719,9.3535262 1.0997166,7.9924923 1.3609104,6.6793846 1.6221042,5.3662892 2.2668304,4.1601846 3.2135258,3.2134892 4.1602212,2.2667938 5.3663135,1.6220677 6.6794212,1.3608738 7.9925166,1.09968 9.3535627,1.2337477 10.590473,1.7460923 c 1.236973,0.5123446 2.294204,1.3799015 3.037958,2.4930954 0.743877,1.1131938 1.1408,2.4219815 1.1408,3.7608123 0,1.7953108 -0.713231,3.517046 -1.982646,4.786462 -1.269539,1.269538 -2.99125,1.982769 -4.7865608,1.982769 z">
        </path>

        <circle
            stroke-width="0"
            cx="8.0000238"
            cy="8"
            r="1.2307693">
        </circle>
    </symbol>

    <symbol id="graduation-cap" viewBox="0 0 24 19.63632">
        <path
            fill="none"
            stroke-width="0"
            d="M 0,0 H 24 V 19.63632 H 0 Z">
        </path>
        <path
            stroke-width="0"
            d="M 12,0 0,6.5454545 4.3636364,8.9236364 V 15.469091 L 12,19.636364 19.636364,15.469091 V 8.9236364 L 21.818182,7.7345455 V 15.272727 H 24 V 6.5454545 Z M 19.44,6.5454545 12,10.603636 4.56,6.5454545 12,2.4872727 Z M 17.454545,14.170909 12,17.149091 6.5454545,14.170909 V 10.112727 L 12,13.090909 17.454545,10.112727 Z">
        </path>
    </symbol>
</svg>
